<svg version="1.0" xmlns="http://www.w3.org/2000/svg" width="666.667" height="666.667" viewBox="0 0 500 500" style="stroke:#fff;fill:#fff"><path d="M166.3 157.7 80.5 306.5l30.3.3c27.8.2 30.3.4 29.8 1.9-.6 1.4-30.1 52.8-53.7 93.5L80.1 414h50.4l60.9-118.5c34.7-67.7 61.3-118.2 61.8-117.7s28 53.7 61.2 118.3l60.3 117.4 25.1.3c13.9.1 25.2.1 25.2-.1s-13.7-24.1-30.5-53.2c-16.8-29-30.5-53-30.5-53.1 0-.2 13.7-.5 30.5-.6l30.5-.3-85.8-148.7C292.1 76 253.2 9.1 252.9 9c-.4 0-39.3 66.9-86.6 148.7zm151.9 10.6c35.6 61.7 65 113 65.3 113.9.7 1.7-.5 1.8-16.2 1.8h-17l-48.8-84.6-48.8-84.5-11.1 19.3c-6.1 10.6-28 48.5-48.6 84.3l-37.6 65-17.2.3c-9.5.1-17.2.1-17.2-.2 0-.2 24-41.9 53.3-92.7 29.3-50.8 58.9-102 65.6-113.7 6.7-11.6 12.6-21.2 12.9-21.2.4.1 29.8 50.6 65.4 112.3z"/><path d="M193.9 299.3C146.3 391.8 134.8 413.6 133 414c-1.8.4-6.7 9.2-24.1 43l-21.8 42.5 165.6.3c91.1.1 165.8.1 165.9-.1.4-.4-42.4-83.9-43.5-85-.5-.5-1.6-.7-2.4-.5-1.2.2 3.7 10.4 19.4 40.8 11.4 22.3 20.9 41.1 20.9 41.7 0 1-32.7 1.3-160 1.3-109.1 0-160-.3-160-1 0-.6 9.4-19.4 20.9-41.8l21-40.7 117.5-.3c64.7-.1 117.6-.4 117.6-.7 0-.7-116.1-226.8-116.9-227.7-.3-.4-27 50.7-59.2 113.5z"/></svg>