<svg width="10" height="10" viewBox="0 0 216 216" xmlns="http://www.w3.org/2000/svg" xml:space="preserve"><defs><linearGradient x1="1.191" y1=".34" x2=".175" y2=".638" id="a"><stop stop-color="#099" offset="0"/><stop stop-color="#009797" offset=".515"/><stop stop-color="#009090" offset=".7"/><stop stop-color="#008585" offset=".833"/><stop stop-color="#007474" offset=".939"/><stop stop-color="#066" offset="1"/></linearGradient><linearGradient x1=".983" y1=".123" x2=".518" y2=".807" id="b"><stop stop-color="#06C" offset="0"/><stop stop-color="#0064CA" offset=".515"/><stop stop-color="#005DC3" offset=".7"/><stop stop-color="#0052B8" offset=".833"/><stop stop-color="#0041A7" offset=".939"/><stop stop-color="#039" offset="1"/></linearGradient><linearGradient x1=".142" y1=".044" x2=".821" y2=".492" id="c"><stop stop-color="#C33" offset="0"/><stop stop-color="#CA3131" offset=".515"/><stop stop-color="#C32A2A" offset=".7"/><stop stop-color="#B81F1F" offset=".833"/><stop stop-color="#A70E0E" offset=".939"/><stop stop-color="#900" offset="1"/></linearGradient><linearGradient x1="-.159" y1=".648" x2=".815" y2=".366" id="d"><stop stop-color="#F93" offset="0"/><stop stop-color="#FD9731" offset=".515"/><stop stop-color="#F6902A" offset=".7"/><stop stop-color="#EB851F" offset=".833"/><stop stop-color="#DA740E" offset=".939"/><stop stop-color="#C60" offset="1"/></linearGradient><linearGradient x1=".868" y1=".976" x2=".132" y2=".476" id="e"><stop stop-color="#093" offset="0"/><stop stop-color="#009731" offset=".515"/><stop stop-color="#00902A" offset=".7"/><stop stop-color="#00851F" offset=".833"/><stop stop-color="#00740E" offset=".939"/><stop stop-color="#060" offset="1"/></linearGradient><linearGradient x1=".018" y1=".855" x2=".491" y2=".198" id="f"><stop stop-color="#FC0" offset="0"/><stop stop-color="#FDCA00" offset=".515"/><stop stop-color="#F6C300" offset=".7"/><stop stop-color="#EBB800" offset=".833"/><stop stop-color="#DAA700" offset=".939"/><stop stop-color="#C90" offset="1"/></linearGradient><linearGradient x1=".658" y1="1.186" x2=".376" y2=".223" id="g"><stop stop-color="#9C3" offset="0"/><stop stop-color="#97CA31" offset=".515"/><stop stop-color="#90C32A" offset=".7"/><stop stop-color="#85B81F" offset=".833"/><stop stop-color="#74A70E" offset=".939"/><stop stop-color="#690" offset="1"/></linearGradient><linearGradient x1=".345" y1="-.196" x2=".635" y2=".834" id="h"><stop stop-color="#939" offset="0"/><stop stop-color="#973197" offset=".515"/><stop stop-color="#902A90" offset=".7"/><stop stop-color="#851F85" offset=".833"/><stop stop-color="#740E74" offset=".939"/><stop stop-color="#606" offset="1"/></linearGradient></defs><path fill="url(#a)" d="M69.971 69.972 54.119 108.24 31.702 31.702 108.241 0z"/><path fill="url(#b)" d="m54.119 108.24 15.852 38.27L0 108.24l31.702-76.538z"/><path fill="url(#c)" d="m146.511 146.51-38.27 15.85-76.539 22.42 76.539 31.7z"/><path fill="url(#d)" d="m162.361 108.24-15.85 38.27-38.27 69.97 76.53-31.7z"/><path fill="url(#e)" d="m69.971 69.972 38.27-15.852 76.54-22.417L108.241 0z"/><path fill="url(#f)" d="m162.361 108.24-15.85-38.27 69.97 38.27-31.71 76.54z"/><path fill="url(#g)" d="m146.511 69.97-38.27-15.85 76.54-22.417 31.7 76.537z"/><path fill="url(#h)" d="m108.241 162.36-38.27-15.85L0 108.24l31.702 76.54z"/></svg>