<svg xmlns="http://www.w3.org/2000/svg" xml:space="preserve" viewBox="0 0 299.26 339.88"><linearGradient id="a" y2="187.05" gradientUnits="userSpaceOnUse" x2="56.863" gradientTransform="rotate(22.5 341.73 200.46)" y1="127.55" x1="116.36"><stop style="stop-color:#099" offset="0"/><stop style="stop-color:#009797" offset=".515"/><stop style="stop-color:#009090" offset=".7"/><stop style="stop-color:#008585" offset=".833"/><stop style="stop-color:#007474" offset=".939"/><stop style="stop-color:#066" offset="1"/></linearGradient><path fill="url(#a)" d="M108.54 79.972 92.688 118.24 70.271 41.702 146.81 10z"/><linearGradient id="b" y2="241.52" gradientUnits="userSpaceOnUse" x2="69.824" gradientTransform="rotate(22.5 341.73 200.46)" y1="156.52" x1="69.824"><stop style="stop-color:#06c" offset="0"/><stop style="stop-color:#0064ca" offset=".515"/><stop style="stop-color:#005dc3" offset=".7"/><stop style="stop-color:#0052b8" offset=".833"/><stop style="stop-color:#0041a7" offset=".939"/><stop style="stop-color:#039" offset="1"/></linearGradient><path fill="url(#b)" d="m92.688 118.24 15.852 38.27-69.971-38.27 31.702-76.538z"/><linearGradient id="c" y2="190.92" gradientUnits="userSpaceOnUse" x2="164.52" y1="159.56" x1="86.549"><stop style="stop-color:#c33" offset="0"/><stop style="stop-color:#ca3131" offset=".515"/><stop style="stop-color:#c32a2a" offset=".7"/><stop style="stop-color:#b81f1f" offset=".833"/><stop style="stop-color:#a70e0e" offset=".939"/><stop style="stop-color:#900" offset="1"/></linearGradient><path fill="url(#c)" d="m185.08 156.51-38.27 15.85-76.539 22.42 76.539 31.7z"/><linearGradient id="d" y2="157.91" gradientUnits="userSpaceOnUse" x2="209.19" y1="188.42" x1="134.61"><stop style="stop-color:#f93" offset="0"/><stop style="stop-color:#fd9731" offset=".515"/><stop style="stop-color:#f6902a" offset=".7"/><stop style="stop-color:#eb851f" offset=".833"/><stop style="stop-color:#da740e" offset=".939"/><stop style="stop-color:#c60" offset="1"/></linearGradient><path fill="url(#d)" d="m200.93 118.24-15.85 38.27-38.27 69.97 76.53-31.7z"/><linearGradient id="e" y2="138.73" gradientUnits="userSpaceOnUse" x2="80.179" gradientTransform="rotate(22.5 341.73 200.46)" y1="138.73" x1="171.6"><stop style="stop-color:#093" offset="0"/><stop style="stop-color:#009731" offset=".515"/><stop style="stop-color:#00902a" offset=".7"/><stop style="stop-color:#00851f" offset=".833"/><stop style="stop-color:#00740e" offset=".939"/><stop style="stop-color:#060" offset="1"/></linearGradient><path fill="url(#e)" d="m108.54 79.972 38.27-15.852 76.54-22.417L146.81 10z"/><linearGradient id="f" y2="102.69" gradientUnits="userSpaceOnUse" x2="219.41" y1="178.11" x1="186.36"><stop style="stop-color:#fc0" offset="0"/><stop style="stop-color:#fdca00" offset=".515"/><stop style="stop-color:#f6c300" offset=".7"/><stop style="stop-color:#ebb800" offset=".833"/><stop style="stop-color:#daa700" offset=".939"/><stop style="stop-color:#c90" offset="1"/></linearGradient><path fill="url(#f)" d="m200.93 118.24-15.85-38.27 69.97 38.27-31.71 76.54z"/><linearGradient id="g" y2="58.734" gradientUnits="userSpaceOnUse" x2="187.5" y1="132.46" x1="218.01"><stop style="stop-color:#9c3" offset="0"/><stop style="stop-color:#97ca31" offset=".515"/><stop style="stop-color:#90c32a" offset=".7"/><stop style="stop-color:#85b81f" offset=".833"/><stop style="stop-color:#74a70e" offset=".939"/><stop style="stop-color:#690" offset="1"/></linearGradient><path fill="url(#g)" d="m185.08 79.97-38.27-15.85 76.54-22.417 31.7 76.537z"/><linearGradient id="h" y2="182.07" gradientUnits="userSpaceOnUse" x2="107.32" y1="103.26" x1="75.962"><stop style="stop-color:#939" offset="0"/><stop style="stop-color:#973197" offset=".515"/><stop style="stop-color:#902a90" offset=".7"/><stop style="stop-color:#851f85" offset=".833"/><stop style="stop-color:#740e74" offset=".939"/><stop style="stop-color:#606" offset="1"/></linearGradient><path fill="url(#h)" d="m146.81 172.36-38.27-15.85-69.971-38.27 31.702 76.54z"/><path stroke-linejoin="round" d="M11.419 271.76c11.012-5.918 36.228-2.894 50.205-2.953" stroke="#000" stroke-linecap="round" stroke-width="2.835" fill="none"/><path stroke-linejoin="round" d="M38.589 247.54c0 12.385.624 24.905.018 37.27-.365 7.457-5.517 30.102-16.5 29.537-12.276-22.327 21.656-27.768 35.975-23.541 13.585 4.012 2.205 24.281-5.908 24.066M62.215 280.62c5.02.34 7.278 6.336 11.222 8.86M95.882 264.08c-2.485 4.444-1.185 12.528-1.182 16.537M111.83 260.54c5.367 9.011 4.335 25.808 4.284 36.103-.054 10.975-4.509 23.869-12.553 31.822M131.32 275.9c3.294-10.066 30.918-11.736 35.231-1.108 4.314 10.632-4.308 22.618-12.751 28.177-.078-1.072-.182-2.382-.035-3.441" stroke="#000" stroke-linecap="round" stroke-width="2.835" fill="none"/><path stroke-linejoin="round" d="M162.03 248.14c-.743 5.805-4.967 12.121-6.941 17.677-2.794 7.863-6.113 15.638-8.416 23.668M167.94 262.9c8.463 5.619 18.986 12.298 23.035 21.854M181.52 254.04a88.945 88.945 0 0 1 4.726 2.363M188.61 248.14c2.03 2.365 5.471 3.412 7.088 5.316M215.19 269.4c4.259-1.92 20.903-6.944 24.788-4.07 2.652 1.959 1.172 1.146 1.789 5.048 1.352 8.534-.672 18.196-3.494 26.175-1.827 5.166-6.521 18.199-12.289 20.386-6.771 2.567-8.854-6.65-6.33-11.562 3.563-6.932 16.749-10.498 23.224-12.731 14.97-5.16 29.39-5.456 44.962-5.526" stroke="#000" stroke-linecap="round" stroke-width="2.835" fill="none"/><path stroke-linejoin="round" d="M258.9 251.68c-.604 9.65 2.971 20.334 3.019 30.3.054 11.285-.903 21.823-2.31 32.922-.396 3.12-.422 6.417-1.3 9.429" stroke="#000" stroke-linecap="round" stroke-width="2.835" fill="none"/></svg>