<svg width="20" height="20" xmlns="http://www.w3.org/2000/svg" viewBox="0 0 511.982 511.982" style="enable-background:new 0 0 511.982 511.982" xml:space="preserve"><path style="fill:#f5ba45" d="M191.524 410.641 0 373.315l106.668 106.668h85.325z"/><path style="fill:#e8a93a" d="m234.586 52.732-60.405 186.587 159.338 186.666 41.327-116.668z"/><path style="fill:#f5ba45" d="M426.657 117.324 277.319 425.985l115.823 11.328S440.718 201.54 450.297 166.4l-23.64-49.076z"/><path d="m114.23 395.58 28.734 84.403h49.029l-.469-69.342z" style="opacity:.1"/><path style="opacity:.1;enable-background:new" d="m394.659 183.462 40.841 48.577c3.969-18.452 9.313-42.952 11.875-53.873l-31.265-39.062-21.451 44.358z"/><path d="m400.002 403.47-81.107-63.435-41.576 85.95 115.823 11.328z" style="opacity:.1"/><path style="fill:#fecd57" d="m85.325 31.999.203 320.207 85.138 127.777h175.916l46.561-42.67c-.001 0-304.49-398.659-307.818-405.314zM426.657 117.324l-31.998 66.138 117.323 40.53z"/></svg>