<?xml version="1.0" standalone="no"?>
<!DOCTYPE svg PUBLIC "-//W3C//DTD SVG 20010904//EN"
 "http://www.w3.org/TR/2001/REC-SVG-20010904/DTD/svg10.dtd">
<svg version="1.0" xmlns="http://www.w3.org/2000/svg"
 width="500.000000pt" height="500.000000pt" viewBox="0 0 500.000000 500.000000"
 preserveAspectRatio="xMidYMid meet" style="stroke: white; fill: white;">
<metadata>
Created by potrace 1.16, written by Peter Selinger 2001-2019
</metadata>
<g transform="translate(0.000000,500.000000) scale(0.100000,-0.100000)">
<path d="M1663 3423 l-858 -1488 303 -3 c278 -2 303 -4 298 -19 -6 -14 -301
-528 -537 -935 l-68 -118 252 0 252 0 609 1185 c347 677 613 1182 618 1177 5
-5 280 -537 612 -1183 l603 -1174 251 -3 c139 -1 252 -1 252 1 0 2 -137 241
-305 532 -168 290 -305 530 -305 531 0 2 137 5 305 6 l305 3 -858 1487 c-471
818 -860 1487 -863 1488 -4 0 -393 -669 -866 -1487z m1519 -106 c356 -617 650
-1130 653 -1139 7 -17 -5 -18 -162 -18 l-170 0 -488 846 -488 845 -111 -193
c-61 -106 -280 -485 -486 -843 l-376 -650 -172 -3 c-95 -1 -172 -1 -172 2 0 2
240 419 533 927 293 508 589 1020 656 1137 67 116 126 212 129 212 4 -1 298
-506 654 -1123z"/>
<path d="M1939 2007 c-476 -925 -591 -1143 -609 -1147 -18 -4 -67 -92 -241
-430 l-218 -425 1656 -3 c911 -1 1658 -1 1659 1 4 4 -424 839 -435 850 -5 5
-16 7 -24 5 -12 -2 37 -104 194 -408 114 -223 209 -411 209 -417 0 -10 -327
-13 -1600 -13 -1091 0 -1600 3 -1600 10 0 6 94 194 209 418 l210 407 1175 3
c647 1 1176 4 1176 7 0 7 -1161 2268 -1169 2277 -3 4 -270 -507 -592 -1135z"/>
</g>
</svg>
