<svg version="1.0" xmlns="http://www.w3.org/2000/svg" preserveAspectRatio="xMidYMid meet" viewBox="8 45 123 106">

<g transform="translate(0.000000,193.000000) scale(0.100000,-0.100000)" fill="#000000" stroke="none">
<path d="M782 1437 l-42 -43 0 -87 0 -87 -286 0 -287 0 -44 -44 -43 -44 2 -228 3 -229 328 -3 327 -2 0 -125 c0 -69 3 -125 8 -125 11 0 562 554 562 565 0 6 -109 119 -243 253 l-242 242 -43 -43z m196 -685 l-153 -152 -3 75 -3 75 -329 0 -330 0 0 155 0 155 330 0 330 0 0 77 0 78 155 -155 155 -155 -152 -153z"/>
</g>
</svg>